# File created by Blade
# Date/Time:  Wed Jan 21 16:09:38 2015
# Frame Rate: 120.000 fps
#------------------------------------------------------
:FULLY-SPECIFIED
:DEGREES
651
root 16.130893 34.303849 -22.183849 -152.930117 75.230700 -180.282149
Spine 28.701600 -8.338526 5.787171
Head -30.786253 2.572616 0.984192
LeftShoulder -13.062424 -32.792927 22.693395
LeftArm -45.573022 -9.459598 -19.223854
LeftForeArm -34.928571 -0.000000 -1.317158
LeftHand -10.032619 -0.000000 6.256450
LeftHandThumb1 -26.253704 0.000000 33.147579
RightShoulder -11.306142 -2.156612 -15.653756
RightArm -26.166541 47.295417 17.825006
RightForeArm -5.541632 -0.000000 13.384988
RightHand -22.589873 -0.000000 -19.562089
RightHandThumb1 -24.326973 -0.000000 -32.862282
LeftUpLeg -2.298357 1.076847 -3.808456
LeftLeg -12.237239 -0.000000 0.000000
LeftFoot -3.807453 21.565648 10.876072
LeftToeBase -147.107197 -0.000000 0.000000
RightUpLeg -43.125486 -2.665998 4.849006
RightLeg -4.855620 -0.000000 0.000000
RightFoot 7.831649 -30.214866 -3.929746
RightToeBase 17.061592 -0.000000 -0.000000
652
root 16.270680 34.333078 -22.151799 -152.343674 75.045246 -179.173891
Spine 28.001564 -8.131669 5.884408
Head -30.209799 2.774167 0.868854
LeftShoulder -13.223106 -32.871673 22.862044
LeftArm -45.674376 -9.447554 -19.259194
LeftForeArm -34.569011 -0.000000 -1.238077
LeftHand -10.073639 -0.000000 6.205405
LeftHandThumb1 -26.253704 0.000000 33.147579
RightShoulder -11.284681 -2.049489 -15.665949
RightArm -25.846934 47.282300 17.612299
RightForeArm -5.873483 -0.000000 13.515731
RightHand -22.537363 -0.000000 -19.401566
RightHandThumb1 -24.326973 -0.000000 -32.862282
LeftUpLeg -1.752545 1.153782 -3.379072
LeftLeg -12.042887 -0.000000 0.000000
LeftFoot -3.513130 21.622055 10.743862
LeftToeBase -147.409131 -0.000000 0.000000
RightUpLeg -42.406908 -2.764327 5.385115
RightLeg -4.869131 -0.000000 0.000000
RightFoot 7.630238 -30.277435 -3.985373
RightToeBase 16.605665 -0.000000 -0.000000
653
root 16.407296 34.363956 -22.126130 -151.950187 74.838568 -178.264441
Spine 27.311579 -7.979884 5.962679
Head -29.611073 2.911364 0.826115
LeftShoulder -13.371023 -32.919706 22.961148
LeftArm -45.763701 -9.464190 -19.261222
LeftForeArm -34.302286 -0.000000 -1.108920
LeftHand -10.090191 -0.000000 6.348175
LeftHandThumb1 -26.253704 0.000000 33.147579
RightShoulder -11.218697 -1.919918 -15.722683
RightArm -25.536130 47.219764 17.420244
RightForeArm -6.341008 0.000000 13.644960
RightHand -22.538887 -0.000000 -19.235314
RightHandThumb1 -24.326973 -0.000000 -32.862282
LeftUpLeg -1.231586 1.173592 -2.997838
LeftLeg -11.818506 -0.000000 0.000000
LeftFoot -3.124630 21.724447 10.676831
LeftToeBase -147.737144 -0.000000 0.000000
RightUpLeg -41.718843 -2.874624 5.823789
RightLeg -4.814056 -0.000000 0.000000
RightFoot 7.362390 -30.299531 -4.034935
RightToeBase 15.989700 -0.000000 -0.000000
654
root 16.542372 34.393001 -22.100714 -151.653985 74.630735 -177.464915
Spine 26.604323 -7.769349 6.035726
Head -28.978665 3.082985 0.750421
LeftShoulder -13.463708 -32.967006 23.099674
LeftArm -45.871828 -9.670547 -19.155836
LeftForeArm -33.838271 -0.000000 -1.029115
LeftHand -10.110410 0.000000 6.473084
LeftHandThumb1 -26.253704 0.000000 33.147579
RightShoulder -11.277361 -1.876634 -15.749704
RightArm -25.022823 47.290226 17.317562
RightForeArm -7.031757 -0.000000 13.685302
RightHand -22.536241 -0.000000 -18.976508
RightHandThumb1 -24.326973 -0.000000 -32.862282
LeftUpLeg -0.721801 1.247825 -2.647476
LeftLeg -11.585380 -0.000000 0.000000
LeftFoot -2.823746 21.711876 10.555231
LeftToeBase -148.134194 -0.000000 0.000000
RightUpLeg -41.031851 -2.971157 6.200056
RightLeg -4.778270 -0.000000 0.000000
RightFoot 7.073597 -30.356789 -3.994501
RightToeBase 16.028937 -0.000000 -0.000000
655
root 16.678562 34.420952 -22.077716 -151.466159 74.420200 -176.783028
Spine 25.898355 -7.566936 6.095743
Head -28.333386 3.123692 0.654807
LeftShoulder -13.578448 -32.963846 23.196674
LeftArm -45.819694 -9.707676 -19.266162
LeftForeArm -33.572553 -0.000000 -1.093144
LeftHand -9.905248 -0.000000 6.487749
LeftHandThumb1 -26.253704 0.000000 33.147579
RightShoulder -11.271600 -1.858384 -15.776855
RightArm -24.649164 47.393678 17.136067
RightForeArm -7.858992 -0.000000 13.799245
RightHand -22.536336 -0.000000 -18.685933
RightHandThumb1 -24.326973 -0.000000 -32.862282
LeftUpLeg -0.225367 1.374709 -2.328046
LeftLeg -11.344246 -0.000000 0.000000
LeftFoot -2.563438 21.688511 10.367584
LeftToeBase -148.610809 -0.000000 0.000000
RightUpLeg -40.347751 -3.116054 6.562443
RightLeg -4.750978 -0.000000 0.000000
RightFoot 6.774093 -30.396278 -3.928752
RightToeBase 15.472055 -0.000000 -0.000000
656
root 16.818331 34.447239 -22.054860 -151.369991 74.149200 -176.160694
Spine 25.253238 -7.432413 6.177094
Head -27.743399 3.233338 0.529235
LeftShoulder -13.746817 -32.972853 23.303006
LeftArm -45.772591 -9.767003 -19.359290
LeftForeArm -33.109836 -0.000000 -1.109623
LeftHand -9.681047 -0.000000 6.492938
LeftHandThumb1 -26.253704 0.000000 33.147579
RightShoulder -11.257063 -1.686820 -15.838462
RightArm -24.113445 47.075940 17.069706
RightForeArm -8.475051 -0.000000 13.743532
RightHand -22.509312 -0.000000 -18.551039
RightHandThumb1 -24.326973 -0.000000 -32.862282
LeftUpLeg 0.324782 1.428276 -1.984164
LeftLeg -11.143917 -0.000000 0.000000
LeftFoot -2.260255 21.655582 10.219078
LeftToeBase -149.013852 -0.000000 0.000000
RightUpLeg -39.602547 -3.295501 6.900253
RightLeg -4.760239 -0.000000 0.000000
RightFoot 6.494443 -30.434981 -3.967099
RightToeBase 15.224978 -0.000000 -0.000000
657
root 16.953545 34.474340 -22.029596 -151.331186 73.880599 -175.640935
Spine 24.555501 -7.236599 6.242315
Head -27.110237 3.287414 0.450285
LeftShoulder -13.809759 -32.968786 23.365634
LeftArm -45.760438 -9.754211 -19.501918
LeftForeArm -32.980064 -0.000000 -0.934179
LeftHand -9.732180 -0.000000 6.593896
LeftHandThumb1 -26.253704 0.000000 33.147579
RightShoulder -11.275160 -1.673721 -15.838876
RightArm -23.527532 46.919478 16.991491
RightForeArm -9.145775 -0.000000 13.613897
RightHand -22.226512 -0.000000 -18.473860
RightHandThumb1 -24.326973 -0.000000 -32.862282
LeftUpLeg 0.791439 1.542464 -1.665846
LeftLeg -10.886353 -0.000000 0.000000
LeftFoot -1.962575 21.610860 10.102686
LeftToeBase -149.452404 -0.000000 0.000000
RightUpLeg -38.916703 -3.430516 7.177002
RightLeg -4.750010 -0.000000 0.000000
RightFoot 6.172971 -30.540354 -3.932900
RightToeBase 15.443923 -0.000000 -0.000000
658
root 17.087997 34.501162 -22.005178 -151.422639 73.537036 -175.240483
Spine 23.889469 -7.121386 6.293191
Head -26.504487 3.454913 0.404386
LeftShoulder -13.926825 -32.943030 23.517200
LeftArm -45.732951 -9.848985 -19.626909
LeftForeArm -32.611731 -0.000000 -0.814207
LeftHand -9.800423 -0.000000 6.751034
LeftHandThumb1 -26.253704 0.000000 33.147579
RightShoulder -11.283816 -1.627777 -15.833547
RightArm -23.001380 46.844245 16.894417
RightForeArm -9.933086 -0.000000 13.690836
RightHand -22.454589 -0.000000 -18.109744
RightHandThumb1 -24.326973 -0.000000 -32.862282
LeftUpLeg 1.266845 1.553020 -1.331902
LeftLeg -10.629617 -0.000000 0.000000
LeftFoot -1.725150 21.552562 9.899106
LeftToeBase -149.898667 -0.000000 0.000000
RightUpLeg -38.224818 -3.628958 7.436935
RightLeg -4.724953 -0.000000 0.000000
RightFoot 5.846483 -30.672534 -3.934642
RightToeBase 15.252822 -0.000000 -0.000000
